<svg width="83" height="66" viewBox="0 0 83 66" fill="none" xmlns="http://www.w3.org/2000/svg">
<path d="M74.7 53.625C74.7 55.902 72.8408 57.75 70.55 57.75C68.2592 57.75 66.4 55.902 66.4 53.625V4.125C66.4 1.84388 64.545 0 62.25 0H4.15C1.85505 0 0 1.84388 0 4.125V57.75C0 62.304 3.7184 66 8.3 66H53.95H62.9638H70.55C77.4141 66 83 60.4478 83 53.625V12.375H74.7V53.625ZM41.5 12.375H53.95V20.625H41.5V12.375ZM41.5 28.875H53.95V37.125H41.5V28.875ZM12.45 12.375H33.2V37.125H12.45V12.375ZM12.45 53.625V45.375H53.95V53.625H12.45Z" fill="white"/>
</svg>
